# xmcd CD database file
#
# Track frame offsets:
#	150
#	23531
#	40938
#	55448
#	75259
#	95876
#	110177
#	130696
#	146421
#	165491
#
# Disc length: 2792 seconds
#
# Revision: 1
# Processed by: cddbd v1.5.2PL0 Copyright (c) Steve Scherf et al.
# Submitted via: CDex 1.50
#
DISCID=7d0ae60a
DTITLE=Keiji Matsumoto and Nobuo Kurata  - Artless Soul 
DYEAR=2004
DGENRE=New Age
TTITLE0=While The Rain Stops 
TTITLE1=On A Journey Alone 
TTITLE2=At Dusk 
TTITLE3=A Winter Day 
TTITLE4=Snowing In The Afternoon 
TTITLE5=Wishing To Return My Step
TTITLE6=Summer Riverside 
TTITLE7=Autumn Campus 
TTITLE8=After Breaking With Love
TTITLE9=A winter Day
EXTD=YEAR: 2004
EXTT0=
EXTT1=
EXTT2=
EXTT3=
EXTT4=
EXTT5=
EXTT6=
EXTT7=
EXTT8=
EXTT9=
PLAYORDER=
